<svg width="200" height="200" viewBox="0 0 200 200" fill="none" xmlns="http://www.w3.org/2000/svg">
<g filter="url(#filter0_i_287_238)">
<path d="M100 100H141.667L183.333 58.3334V16.6667H141.667L100 58.3334V100Z" fill="white" fill-opacity="0.02"/>
<path d="M100 100H141.667L183.333 58.3334V16.6667H141.667L100 58.3334V100Z" fill="url(#paint0_linear_287_238)" fill-opacity="0.2"/>
<path d="M100 183.333H141.667L183.333 141.667V100H141.667L100 141.667V183.333Z" fill="white" fill-opacity="0.02"/>
<path d="M100 183.333H141.667L183.333 141.667V100H141.667L100 141.667V183.333Z" fill="url(#paint1_linear_287_238)" fill-opacity="0.2"/>
<path d="M16.6666 183.333H58.3333L100 141.667V100H58.3333L16.6666 141.667V183.333Z" fill="white" fill-opacity="0.02"/>
<path d="M16.6666 183.333H58.3333L100 141.667V100H58.3333L16.6666 141.667V183.333Z" fill="url(#paint2_linear_287_238)" fill-opacity="0.2"/>
<path d="M16.6666 100H58.3333L100 58.3334V16.6667H58.3333L16.6666 58.3334V100Z" fill="white" fill-opacity="0.02"/>
<path d="M16.6666 100H58.3333L100 58.3334V16.6667H58.3333L16.6666 58.3334V100Z" fill="url(#paint3_linear_287_238)" fill-opacity="0.2"/>
</g>
<defs>
<filter id="filter0_i_287_238" x="16.6666" y="16.6667" width="166.667" height="166.667" filterUnits="userSpaceOnUse" color-interpolation-filters="sRGB">
<feFlood flood-opacity="0" result="BackgroundImageFix"/>
<feBlend mode="normal" in="SourceGraphic" in2="BackgroundImageFix" result="shape"/>
<feColorMatrix in="SourceAlpha" type="matrix" values="0 0 0 0 0 0 0 0 0 0 0 0 0 0 0 0 0 0 127 0" result="hardAlpha"/>
<feOffset/>
<feGaussianBlur stdDeviation="6"/>
<feComposite in2="hardAlpha" operator="arithmetic" k2="-1" k3="1"/>
<feColorMatrix type="matrix" values="0 0 0 0 1 0 0 0 0 1 0 0 0 0 1 0 0 0 0.2 0"/>
<feBlend mode="normal" in2="shape" result="effect1_innerShadow_287_238"/>
</filter>
<linearGradient id="paint0_linear_287_238" x1="100" y1="-63.478" x2="100" y2="183.333" gradientUnits="userSpaceOnUse">
<stop stop-color="white"/>
<stop offset="0.773658" stop-color="white" stop-opacity="0"/>
</linearGradient>
<linearGradient id="paint1_linear_287_238" x1="100" y1="-63.478" x2="100" y2="183.333" gradientUnits="userSpaceOnUse">
<stop stop-color="white"/>
<stop offset="0.773658" stop-color="white" stop-opacity="0"/>
</linearGradient>
<linearGradient id="paint2_linear_287_238" x1="100" y1="-63.478" x2="100" y2="183.333" gradientUnits="userSpaceOnUse">
<stop stop-color="white"/>
<stop offset="0.773658" stop-color="white" stop-opacity="0"/>
</linearGradient>
<linearGradient id="paint3_linear_287_238" x1="100" y1="-63.478" x2="100" y2="183.333" gradientUnits="userSpaceOnUse">
<stop stop-color="white"/>
<stop offset="0.773658" stop-color="white" stop-opacity="0"/>
</linearGradient>
</defs>
</svg>
