<svg width="200" height="200" viewBox="0 0 200 200" fill="none" xmlns="http://www.w3.org/2000/svg">
<g filter="url(#filter0_i_287_277)">
<path d="M100 170.833L145.833 195.833L191.667 170.833V112.5L145.833 141.667L100 112.5V170.833Z" fill="white" fill-opacity="0.02"/>
<path d="M100 170.833L145.833 195.833L191.667 170.833V112.5L145.833 141.667L100 112.5V170.833Z" fill="url(#paint0_linear_287_277)" fill-opacity="0.2"/>
<path d="M8.33337 112.5L54.1667 87.4998L100 112.5L54.1667 141.667V195.833L8.33337 170.833V112.5Z" fill="white" fill-opacity="0.02"/>
<path d="M8.33337 112.5L54.1667 87.4998L100 112.5L54.1667 141.667V195.833L8.33337 170.833V112.5Z" fill="url(#paint1_linear_287_277)" fill-opacity="0.2"/>
<path d="M145.833 87.4998L100 112.5V58.3332L54.1667 29.1665L100 4.1665L145.833 29.1665V87.4998Z" fill="white" fill-opacity="0.02"/>
<path d="M145.833 87.4998L100 112.5V58.3332L54.1667 29.1665L100 4.1665L145.833 29.1665V87.4998Z" fill="url(#paint2_linear_287_277)" fill-opacity="0.2"/>
</g>
<defs>
<filter id="filter0_i_287_277" x="8.33337" y="4.1665" width="183.333" height="191.667" filterUnits="userSpaceOnUse" color-interpolation-filters="sRGB">
<feFlood flood-opacity="0" result="BackgroundImageFix"/>
<feBlend mode="normal" in="SourceGraphic" in2="BackgroundImageFix" result="shape"/>
<feColorMatrix in="SourceAlpha" type="matrix" values="0 0 0 0 0 0 0 0 0 0 0 0 0 0 0 0 0 0 127 0" result="hardAlpha"/>
<feOffset/>
<feGaussianBlur stdDeviation="6"/>
<feComposite in2="hardAlpha" operator="arithmetic" k2="-1" k3="1"/>
<feColorMatrix type="matrix" values="0 0 0 0 1 0 0 0 0 1 0 0 0 0 1 0 0 0 0.2 0"/>
<feBlend mode="normal" in2="shape" result="effect1_innerShadow_287_277"/>
</filter>
<linearGradient id="paint0_linear_287_277" x1="100" y1="-88" x2="100" y2="195.833" gradientUnits="userSpaceOnUse">
<stop stop-color="white"/>
<stop offset="0.773658" stop-color="white" stop-opacity="0"/>
</linearGradient>
<linearGradient id="paint1_linear_287_277" x1="100" y1="-88" x2="100" y2="195.833" gradientUnits="userSpaceOnUse">
<stop stop-color="white"/>
<stop offset="0.773658" stop-color="white" stop-opacity="0"/>
</linearGradient>
<linearGradient id="paint2_linear_287_277" x1="100" y1="-88" x2="100" y2="195.833" gradientUnits="userSpaceOnUse">
<stop stop-color="white"/>
<stop offset="0.773658" stop-color="white" stop-opacity="0"/>
</linearGradient>
</defs>
</svg>
