<svg width="200" height="200" viewBox="0 0 200 200" fill="none" xmlns="http://www.w3.org/2000/svg">
<g filter="url(#filter0_i_287_258)">
<path d="M100 41.6667L116.667 70.8333H150L166.667 41.6667H133.333L116.667 12.5L100 41.6667Z" fill="white" fill-opacity="0.02"/>
<path d="M100 41.6667L116.667 70.8333H150L166.667 41.6667H133.333L116.667 12.5L100 41.6667Z" fill="url(#paint0_linear_287_258)" fill-opacity="0.2"/>
<path d="M150 129.167L133.333 100L150 70.8333H183.333L166.667 100L183.333 129.167H150Z" fill="white" fill-opacity="0.02"/>
<path d="M150 129.167L133.333 100L150 70.8333H183.333L166.667 100L183.333 129.167H150Z" fill="url(#paint1_linear_287_258)" fill-opacity="0.2"/>
<path d="M100 158.333L116.667 129.167H150L166.667 158.333H133.333L116.667 187.5L100 158.333Z" fill="white" fill-opacity="0.02"/>
<path d="M100 158.333L116.667 129.167H150L166.667 158.333H133.333L116.667 187.5L100 158.333Z" fill="url(#paint2_linear_287_258)" fill-opacity="0.2"/>
<path d="M100 158.333L83.3334 129.167H50.0001L33.3334 158.333H66.6668L83.3334 187.5L100 158.333Z" fill="white" fill-opacity="0.02"/>
<path d="M100 158.333L83.3334 129.167H50.0001L33.3334 158.333H66.6668L83.3334 187.5L100 158.333Z" fill="url(#paint3_linear_287_258)" fill-opacity="0.2"/>
<path d="M50.0001 129.167L66.6668 100L50.0001 70.8333H16.6667L33.3334 100L16.6667 129.167H50.0001Z" fill="white" fill-opacity="0.02"/>
<path d="M50.0001 129.167L66.6668 100L50.0001 70.8333H16.6667L33.3334 100L16.6667 129.167H50.0001Z" fill="url(#paint4_linear_287_258)" fill-opacity="0.2"/>
<path d="M100 41.6667L83.3334 70.8333H50.0001L33.3334 41.6667H66.6668L83.3334 12.5L100 41.6667Z" fill="white" fill-opacity="0.02"/>
<path d="M100 41.6667L83.3334 70.8333H50.0001L33.3334 41.6667H66.6668L83.3334 12.5L100 41.6667Z" fill="url(#paint5_linear_287_258)" fill-opacity="0.2"/>
</g>
<defs>
<filter id="filter0_i_287_258" x="16.6667" y="12.5" width="166.667" height="175" filterUnits="userSpaceOnUse" color-interpolation-filters="sRGB">
<feFlood flood-opacity="0" result="BackgroundImageFix"/>
<feBlend mode="normal" in="SourceGraphic" in2="BackgroundImageFix" result="shape"/>
<feColorMatrix in="SourceAlpha" type="matrix" values="0 0 0 0 0 0 0 0 0 0 0 0 0 0 0 0 0 0 127 0" result="hardAlpha"/>
<feOffset/>
<feGaussianBlur stdDeviation="6"/>
<feComposite in2="hardAlpha" operator="arithmetic" k2="-1" k3="1"/>
<feColorMatrix type="matrix" values="0 0 0 0 1 0 0 0 0 1 0 0 0 0 1 0 0 0 0.2 0"/>
<feBlend mode="normal" in2="shape" result="effect1_innerShadow_287_258"/>
</filter>
<linearGradient id="paint0_linear_287_258" x1="100" y1="-71.652" x2="100" y2="187.5" gradientUnits="userSpaceOnUse">
<stop stop-color="white"/>
<stop offset="0.773658" stop-color="white" stop-opacity="0"/>
</linearGradient>
<linearGradient id="paint1_linear_287_258" x1="100" y1="-71.652" x2="100" y2="187.5" gradientUnits="userSpaceOnUse">
<stop stop-color="white"/>
<stop offset="0.773658" stop-color="white" stop-opacity="0"/>
</linearGradient>
<linearGradient id="paint2_linear_287_258" x1="100" y1="-71.652" x2="100" y2="187.5" gradientUnits="userSpaceOnUse">
<stop stop-color="white"/>
<stop offset="0.773658" stop-color="white" stop-opacity="0"/>
</linearGradient>
<linearGradient id="paint3_linear_287_258" x1="100" y1="-71.652" x2="100" y2="187.5" gradientUnits="userSpaceOnUse">
<stop stop-color="white"/>
<stop offset="0.773658" stop-color="white" stop-opacity="0"/>
</linearGradient>
<linearGradient id="paint4_linear_287_258" x1="100" y1="-71.652" x2="100" y2="187.5" gradientUnits="userSpaceOnUse">
<stop stop-color="white"/>
<stop offset="0.773658" stop-color="white" stop-opacity="0"/>
</linearGradient>
<linearGradient id="paint5_linear_287_258" x1="100" y1="-71.652" x2="100" y2="187.5" gradientUnits="userSpaceOnUse">
<stop stop-color="white"/>
<stop offset="0.773658" stop-color="white" stop-opacity="0"/>
</linearGradient>
</defs>
</svg>
