<svg width="34" height="34" viewBox="0 0 34 34" fill="none" xmlns="http://www.w3.org/2000/svg">
<path d="M9.2768 17C9.2768 13.212 9.26763 9.41489 9.2768 5.62692C9.2768 4.06771 10.0656 2.9304 11.4505 2.48098C11.7807 2.37092 12.1384 2.32506 12.4869 2.32506C15.6879 2.31589 18.8797 2.31589 22.0715 2.32506C23.9334 2.33423 25.2908 3.68249 25.2908 5.5352C25.3 13.1753 25.3 20.8155 25.2908 28.4648C25.2908 30.3175 23.9334 31.6749 22.0807 31.6749C18.9164 31.6841 15.7521 31.6841 12.5878 31.6749C10.6067 31.6749 9.28598 30.3725 9.28598 28.3731C9.26763 24.5759 9.2768 20.788 9.2768 17ZM17.293 4.98489C16.6693 4.98489 16.0456 4.98489 15.4219 4.98489C14.9267 4.99407 14.6515 5.22336 14.6423 5.62692C14.6332 6.03965 14.89 6.32398 15.3669 6.32398C16.651 6.34233 17.9258 6.34233 19.2099 6.32398C19.6685 6.31481 19.9803 6.00297 19.962 5.62692C19.9437 5.2417 19.641 4.98489 19.1732 4.98489C18.5404 4.98489 17.9167 4.98489 17.293 4.98489ZM17.293 26.3461C16.5409 26.3461 15.9447 26.9331 15.9539 27.676C15.9631 28.4098 16.5776 29.0059 17.3113 28.9968C18.0267 28.9876 18.6046 28.4098 18.6137 27.6852C18.6137 26.9239 18.0451 26.3553 17.293 26.3461Z" fill="white"/>
</svg>
