<svg width="26" height="30" viewBox="0 0 26 30" fill="none" xmlns="http://www.w3.org/2000/svg">
<path fill-rule="evenodd" clip-rule="evenodd" d="M12.75 0C13.3368 0 13.8125 0.475697 13.8125 1.0625V4.25C13.8125 4.8368 13.3368 5.3125 12.75 5.3125C12.1632 5.3125 11.6875 4.8368 11.6875 4.25V1.0625C11.6875 0.475697 12.1632 0 12.75 0ZM3.73439 3.73439C4.14932 3.31946 4.82206 3.31946 5.23699 3.73439L7.49089 5.98829C7.90583 6.40322 7.90583 7.07596 7.49089 7.49089C7.07596 7.90582 6.40322 7.90582 5.98829 7.49089L3.73439 5.23699C3.31946 4.82206 3.31946 4.14932 3.73439 3.73439ZM21.7656 3.73439C22.1805 4.14932 22.1805 4.82206 21.7656 5.23699L19.5117 7.49089C19.0968 7.90583 18.424 7.90583 18.0091 7.49089C17.5942 7.07596 17.5942 6.40322 18.0091 5.98829L20.263 3.73439C20.6779 3.31946 21.3507 3.31946 21.7656 3.73439ZM12.1102 10.1034C12.552 9.985 13.0199 10.1626 13.2719 10.5442L20.677 21.7598C20.9138 22.1184 20.9112 22.5844 20.6705 22.9404C20.4298 23.2964 19.9984 23.4723 19.5773 23.3862L16.6062 22.7782L18.0862 28.3017C18.2381 28.8685 17.9017 29.4511 17.3349 29.603C16.7681 29.7549 16.1855 29.4185 16.0336 28.8517L14.5536 23.3283L12.2849 25.3401C11.9634 25.6253 11.5018 25.6886 11.1153 25.5007C10.7288 25.3128 10.4936 24.9105 10.5194 24.4815L11.3246 11.066C11.352 10.6095 11.6685 10.2217 12.1102 10.1034ZM0 12.75C0 12.1632 0.475697 11.6875 1.0625 11.6875H4.25C4.8368 11.6875 5.3125 12.1632 5.3125 12.75C5.3125 13.3368 4.8368 13.8125 4.25 13.8125H1.0625C0.475697 13.8125 0 13.3368 0 12.75ZM20.1875 12.75C20.1875 12.1632 20.6632 11.6875 21.25 11.6875H24.4375C25.0243 11.6875 25.5 12.1632 25.5 12.75C25.5 13.3368 25.0243 13.8125 24.4375 13.8125H21.25C20.6632 13.8125 20.1875 13.3368 20.1875 12.75ZM7.49089 18.0091C7.90582 18.424 7.90582 19.0968 7.49089 19.5117L5.23699 21.7656C4.82206 22.1805 4.14932 22.1805 3.73439 21.7656C3.31946 21.3507 3.31946 20.6779 3.73439 20.263L5.98829 18.0091C6.40322 17.5942 7.07596 17.5942 7.49089 18.0091Z" fill="white"/>
</svg>
